<svg width="370" height="135" viewBox="0 0 370 135" fill="none" xmlns="http://www.w3.org/2000/svg">
<path d="M202.5 1.80001C200.9 2.60001 193.8 9.80001 186.8 17.9L174.2 32.5L176.3 34.8C178.5 37.1 178.5 37.2 176.6 38.6C175.5 39.4 174.2 40 173.7 40C173.2 40 168.9 36.5 164.1 32.2C151.6 21 152.9 21.6 148.6 24.5C145.2 26.8 145 26.8 145 25C145 23.9 144.9 23 144.7 23C143.2 23 109.8 34.1 108.1 35.1C106.2 36.3 106 37.4 106 45.4V54.2L108.9 53.7C111.5 53.2 113 54.2 113 56.4C113 56.6 110.3 57 106.9 57.3C103.6 57.6 98.6999 58.9 96.0999 60.2L91.3999 62.5L91.2999 56.5C91.2999 53.2 90.5999 48.9 89.7999 46.9C87.7999 42.3 82.5999 36.4 77.7999 33.4C67.3999 26.8 48.9999 26.3 31.7999 32C21.0999 35.6 8.29995 42.4 3.39995 47.1L0.199951 50.2L8.39995 64L16.5 77.8L19.7 76.5L22.7999 75.2L36.0999 105.1C43.2999 121.5 49.7999 135 50.3999 135C52.9999 135 76.1999 126.7 78.1999 125L80.4999 123.2L78.1999 114.3C75.4999 103.4 75.4999 103 78.1999 106.6C81.1999 110.5 82.7999 111.8 87.4999 114C94.8999 117.6 106.3 116 113.6 110.5C117.2 107.8 118 108.4 118 114.1C118 115.7 118.4 117 119 117C122.9 117 141.2 113.6 144.3 112.3L148 110.7V102.8V95L170 106L192.1 117.1L195 115.3L198 113.6V103.3C198 95.7 198.3 93 199.3 93C199.9 93 203.1 91.9 206.3 90.6L212.1 88.2L211.5 93.5C210.7 99.8 209.6 99.2 225.8 101.6C234.9 103 237.6 103.1 239.7 102.1C242 101 242.6 101.1 243.7 102.6C244.4 103.5 245.1 104.8 245.3 105.4C245.6 106.2 246.4 106.1 248.3 105.3C250.9 104.1 251 104.2 251 107C251 108.5 251.6 110.5 252.4 111.2C253.1 112 260.1 113.6 267.8 114.9C279.9 117 282.3 117.1 285 116C287.9 114.8 288.1 114.5 287.5 111C286.8 106.7 287 106.5 292.4 105.6L296.2 104.9L295.9 109.9C295.7 112.7 295.7 115 296 115C296.6 115 307.9 116.7 312.7 117.5C315.6 118 315.9 118.4 316.2 122.2L316.5 126.3L326.5 129.7C342.1 134.9 339.9 138 355.9 89.7C363.3 67.6 369.3 49 369.4 48.2C369.5 46.2 342.6 39.6 340 41C337.5 42.3 337 42.3 337 40.5C337 38.8 337.6 39 317.5 34.6C303.5 31.6 302.3 31.5 299.8 32.9C297.1 34.5 297 34.8 297 43.1V51.7L292.5 52.2C290.1 52.5 286.2 53.7 283.9 54.8C281.5 56 279.4 56.8 279.3 56.6C278.9 56.3 274.1 27.7 274 25.7C274 25.3 268.9 25 262.8 25C253.2 25 251 25.3 248.5 27C246 28.6 243.8 29 236.2 29C225.6 29 221 30.7 221 34.6C221 39.6 220.1 40.1 216.3 37.3C214.3 35.8 209.8 33.8 206.2 32.9L199.7 31.3L209.4 26L219.1 20.8L217.4 18.2C216.4 16.7 213.4 12.1 210.6 7.90001L205.5 0.300008L202.5 1.80001ZM211.9 19.4C211.7 19.6 206.8 22.1 201.1 25C187.9 31.6 186.7 30.6 195.3 20.3C198.7 16.2 202.2 12.1 203 11.1C204.4 9.40001 204.7 9.60001 208.4 14.2C210.5 16.9 212.1 19.2 211.9 19.4ZM269.5 33.2C269.8 34.5 270.9 41.4 272 48.7L274 61.9L271.1 66.2C264.2 76.4 265.7 91.7 274.3 98.4C283.3 105.5 283.3 106.5 274.3 105.5C263 104.3 263.6 105 261.5 90.1C259.7 77 258.7 74 257.6 78.3C257.3 79.6 256.1 82.8 254.9 85.5L252.7 90.4L248 80.4L243.3 70.5L241.5 82.3C240.3 90.5 239.4 94 238.5 93.6C237.9 93.4 234.8 92.9 231.8 92.5C223.9 91.5 223.7 91.3 224.5 84.5C225.1 79.8 226 77.9 228.8 74.8L232.3 70.9L230 68.5L227.7 66L229.9 52.8C231.1 45.5 232.3 38.4 232.6 37C233 34.5 233.1 34.5 241.3 35L249.5 35.5L251.1 44.2C251.9 49.1 252.9 53.2 253.1 53.5C253.4 53.7 254.4 49.2 255.3 43.4C256.2 37.5 257.3 32.4 257.6 31.9C257.9 31.4 260.6 31 263.5 31C268.3 31 269 31.3 269.5 33.2ZM139.1 37.7C139.1 40.9 139.5 45.4 139.8 47.7L140.5 51.9L147.5 42C151.4 36.5 154.7 32 155 32.1C155.3 32.1 158.8 35.2 162.8 38.9L170.1 45.8L159.9 56.4C154.3 62.3 150.1 67.4 150.6 67.9C151.1 68.3 155.3 70.1 160 71.9C166.5 74.3 169 75.8 170.5 78.1C173.7 83.1 181.5 87.7 189.3 89.4C191.9 90 192 90.2 192 97V104L167 91.5L142 79V91.9C142 106.4 142.6 105.3 133.8 106.5L129.1 107.1L128.8 101.8C128.6 98.2 129.1 95 130.4 92C131.7 89.1 132.4 85.2 132.4 81C132.4 74.6 132.2 74 126.5 64C125.7 62.6 124.8 57.2 124.4 51.8L123.8 42.1L120.8 42.7C118 43.2 117.9 43.1 118.2 40.4C118.5 37.7 119 37.3 127.5 34.8C132.5 33.4 137.1 32.1 137.8 32.1C138.6 32 139 33.8 139.1 37.7ZM70.6999 37C77.1999 39.8 83.5999 46.5 84.5999 51.5C85.5999 56.8 84.5999 63.1 81.8999 68.5C79.4999 73.4 71.5999 82.3 67.0999 85.3L64.6999 86.9L68.6999 102.7C70.9999 111.4 72.6999 118.7 72.4999 119.1C71.6999 120.4 59.8999 123.3 59.0999 122.4C58.5999 121.9 52.1999 108.2 44.9999 92C37.6999 75.8 31.5999 62.2 31.2999 61.8C31.0999 61.3 29.4999 61.7 27.8999 62.5C26.2999 63.4 24.4999 63.8 24.0999 63.5C23.5999 63.2 21.6999 60.4 19.9999 57.2C18.2 54.1 16.1 50.5 15.3 49.3C14 47.3 14.1 47 18.2 44.6C34.8999 34.8 57.9999 31.5 70.6999 37ZM207.2 39.5C209.6 40.4 213.2 42.3 215 43.9L218.4 46.7L210.3 55.1C199.8 66 197.4 69 199.3 69C201.5 69 207.2 66.4 210.2 64L213 61.9L218 66.2C220.7 68.6 223 70.8 223 71.1C223 72.6 216.9 77.2 211.7 79.5C202.7 83.6 194.8 84.7 187.8 82.6C177.2 79.5 172 72.7 172 61.8C172 53.9 174.6 49 181.5 43.8C189.1 38.1 198.3 36.5 207.2 39.5ZM322.2 41.6L330.9 43.3L332.5 50.4C333.3 54.3 334.3 58.6 334.5 60C334.8 61.4 335.7 65.8 336.6 69.9L338.3 77.4L341.8 62.9C343.7 55 345.5 48.2 345.9 47.7C346.9 46.6 363.1 50.2 362.7 51.5C362.5 52 357.2 67.8 351 86.5C344.8 105.2 339.4 120.9 339 121.3C338.6 121.8 335.7 121.4 332.6 120.4L327 118.6V111C327 106.8 326.7 97.7 326.3 90.9L325.6 78.5L323.3 93C322 100.9 320.6 107.8 320.2 108.2C319.8 108.6 316.7 108.5 313.3 107.9L307.3 106.8L307.8 102.2C308.1 98.9 309.2 96.5 311.3 94C312.9 92.1 315.4 88.2 316.8 85.2C318.8 80.8 319.2 78.7 318.8 73C318.5 67.1 317.9 65.4 315.2 61.4C312.1 57.1 311.9 56.4 312.6 51.4C313.1 47.2 312.9 46 311.9 46C309.1 46 307.9 44.4 308.6 41.6C309.1 39.4 309.7 39 311.4 39.4C312.5 39.6 317.4 40.6 322.2 41.6ZM303.9 58.6C309.7 60.9 314 67.7 314 74.4C313.9 92.8 291 105.8 278.3 94.7C271.5 88.7 270.1 80.2 274.5 71.4C280.2 59.9 293.1 54.3 303.9 58.6ZM165.7 67.6C165.5 67.8 163.9 67.4 162.2 66.8L159 65.6L162.3 62.2L165.5 58.9L165.8 63C166 65.3 166 67.4 165.7 67.6ZM117.7 64.1C129.4 69.7 130.3 86.5 119.6 97.8C115.3 102.5 109.6 105.1 103.1 105.7C95.0999 106.4 89.4999 103.3 85.6999 95.9C83.2999 91.4 82.8999 89.7 83.3999 85.7C85.2999 68.8 103.6 57.3 117.7 64.1Z" fill="#315AAB"/>
<path d="M56.1001 54.8998C55.0001 55.5998 55.3001 57.6998 58.0001 66.5998C59.7001 72.5998 61.5001 77.7998 61.9001 78.1998C62.9001 79.2998 69.8001 73.3998 71.5001 69.9998C74.0001 65.1998 73.4001 60.2998 70.1001 56.8998C67.6001 54.4998 66.3001 53.9998 62.3001 53.9998C59.7001 53.9998 56.9001 54.3998 56.1001 54.8998ZM66.2001 63.8998C67.4001 66.3998 67.6001 67.7998 66.9001 69.1998C65.3001 72.1998 64.2001 71.2998 62.5001 65.7998C60.6001 59.4998 60.6001 59.7998 62.8001 60.1998C63.7001 60.3998 65.3001 61.9998 66.2001 63.8998Z" fill="#315AAB"/>
<path d="M188.5 50.2002C183.1 54.4002 182.2 62.6002 186.7 67.1002C188.4 68.9002 188.8 68.6002 196.3 60.0002C204 51.1002 204 51.1002 201.8 49.6002C198.5 47.3002 191.8 47.6002 188.5 50.2002ZM195.2 55.7002C193.6 57.8002 191.3 60.3002 190.2 61.3002C188.2 63.1002 188.2 63.1002 187.6 61.2002C186.6 58.3002 188.6 54.1002 191.2 53.6002C192.5 53.3002 194.4 52.9002 195.5 52.7002C196.6 52.4002 197.7 52.2002 197.8 52.1002C198 52.1002 196.8 53.7002 195.2 55.7002Z" fill="#315AAB"/>
<path d="M287.2 64.5002C281.2 69.5002 282.6 77.7002 289.8 80.7002C296.6 83.5002 305 78.7002 305 71.8002V68.8002L301.9 71.4002C298.1 74.6002 295.6 74.7002 292.5 71.5002C289.5 68.6002 289.4 67.0002 292 64.2002C294 62.0002 294 62.0002 292.1 62.0002C291 62.0002 288.8 63.1002 287.2 64.5002Z" fill="#315AAB"/>
<path d="M101.8 68.5999C95.9999 71.6999 95.1999 79.2999 99.9999 84.1999C102.8 86.9999 103.5 87.1999 108.2 86.7999C114.9 86.0999 118 82.8999 117.9 76.6999C117.9 73.2999 117.7 72.8999 117 74.6999C115 79.4999 108.3 80.4999 105.1 76.3999C102.4 72.9999 102.5 72.3999 105.5 69.4999C107.5 67.3999 107.6 66.9999 106.2 66.9999C105.3 67.0999 103.3 67.6999 101.8 68.5999Z" fill="#315AAB"/>
</svg>
